<?xml version="1.0" standalone="no"?>
<!DOCTYPE svg PUBLIC "-//W3C//DTD SVG 20010904//EN"
 "http://www.w3.org/TR/2001/REC-SVG-20010904/DTD/svg10.dtd">
<svg version="1.0" xmlns="http://www.w3.org/2000/svg"
 width="260.000000pt" height="260.000000pt" viewBox="0 0 260.000000 260.000000"
 preserveAspectRatio="xMidYMid meet">
<metadata>
Created by potrace 1.14, written by Peter Selinger 2001-2017
</metadata>
<g transform="translate(0.000000,260.000000) scale(0.100000,-0.100000)"
fill="#000000" stroke="none">
<path d="M1313 1636 c-111 -35 -169 -136 -132 -233 25 -67 80 -100 229 -138
117 -30 152 -45 174 -77 20 -28 20 -61 1 -98 -44 -84 -232 -92 -307 -12 -15
15 -32 46 -39 70 -12 41 -13 42 -56 42 l-44 0 7 -37 c25 -142 146 -223 315
-211 194 14 296 192 183 318 -40 44 -89 65 -232 100 -111 27 -152 55 -152 105
0 63 60 105 150 105 86 0 152 -40 165 -101 6 -27 10 -29 52 -29 45 0 45 0 39
31 -17 84 -67 139 -152 165 -58 17 -145 17 -201 0z"/>
<path d="M930 1295 l0 -345 45 0 45 0 0 345 0 345 -45 0 -45 0 0 -345z"/>
</g>
</svg>
